<svg xmlns="http://www.w3.org/2000/svg" version="1.1" xmlns:xlink="http://www.w3.org/1999/xlink" xmlns:svgjs="http://svgjs.dev/svgjs" width="2000" height="590" viewBox="0 0 2000 590"><g transform="matrix(1,0,0,1,-1.2121212121212466,-0.2534692599807613)"><svg viewBox="0 0 396 117" data-background-color="#000000" preserveAspectRatio="xMidYMid meet" height="590" width="2000" xmlns="http://www.w3.org/2000/svg" xmlns:xlink="http://www.w3.org/1999/xlink"><g id="tight-bounds" transform="matrix(1,0,0,1,0.2400000000000091,0.05026424308093169)"><svg viewBox="0 0 395.52 116.89947151383814" height="116.89947151383814" width="395.52"><g><svg viewBox="0 0 680.0674029616047 200.99999999999997" height="116.89947151383814" width="395.52"><g><rect width="18.0362064" height="200.99999999999997" x="262.6669994269341" y="0" fill="#223fc0" opacity="1" stroke-width="0" stroke="transparent" fill-opacity="1" class="rect-qz-0" data-fill-palette-color="primary" rx="1%" id="qz-0" data-palette-color="#223fc0"></rect></g><g transform="matrix(1,0,0,1,327.91840582693413,0.4999999999999858)"><svg viewBox="0 0 352.14899713467054 200" height="200" width="352.14899713467054"><g id="textblocktransform"><svg viewBox="0 0 352.14899713467054 200" height="200" width="352.14899713467054" id="textblock"><g><svg viewBox="0 0 352.14899713467054 200" height="200" width="352.14899713467054"><g transform="matrix(1,0,0,1,0,0)"><svg width="352.14899713467054" viewBox="1 -34.9 61.45 34.9" height="200" data-palette-color="#223fc0"><path d="M8.95 0L8.95-2.3 13.7-2.3 13.7-14.05 3.65-32.6 1-32.6 1-34.9 13.05-34.9 13.05-32.6 8.55-32.6 16.6-17.1 16.8-17.1 25.05-32.6 20.55-32.6 20.55-34.9 30.7-34.9 30.7-32.6 28.05-32.6 18-14.3 18-2.3 22.75-2.3 22.75 0 8.95 0ZM29.75 0L29.75-2.3 32.4-2.3 43.75-34.9 48.5-34.9 59.8-2.3 62.45-2.3 62.45 0 50.65 0 50.65-2.3 55.15-2.3 52.05-11.35 38.45-11.35 35.35-2.3 39.85-2.3 39.85 0 29.75 0ZM45.15-31.25L39.15-13.75 51.3-13.75 45.45-31.25 45.15-31.25Z" opacity="1" transform="matrix(1,0,0,1,0,0)" fill="#223fc0" class="wordmark-text-0" data-fill-palette-color="primary" id="text-0"></path></svg></g></svg></g></svg></g></svg></g><g transform="matrix(1,0,0,1,0,5.592742815366535)"><svg viewBox="0 0 215.45179942693414 189.8145143692669" height="189.8145143692669" width="215.45179942693414"><g><svg xmlns="http://www.w3.org/2000/svg" xmlns:xlink="http://www.w3.org/1999/xlink" version="1.1" x="0" y="0" viewBox="6.3 11.5 87.4 77" style="enable-background:new 0 0 100 100;" xml:space="preserve" height="189.8145143692669" width="215.45179942693414" class="icon-icon-0" data-fill-palette-color="accent" id="icon-0"><path d="M72.3 12.3L72.3 12.3 72.3 12.3l-0.4-0.8H28.2L6.3 50l21.8 38.5h43.7L93.7 50 72.3 12.3zM33.3 25.3L9.9 47.7l18.6-32.8L33.3 25.3zM70.7 14.8l6.4 35.7L36.9 25.8 70.7 14.8zM35.5 27.3l41 25.2-41 23.3V27.3zM77 54.5l-7.2 30.8-32.6-8.1L77 54.5zM33.5 75L9.9 50.5l23.6-22.7V75zM33.2 77.6l-4.6 7.7L11.5 55.1 33.2 77.6zM35 78.6l31.4 7.9H30.2L35 78.6zM79.3 53.3l11.6-2.5L72.1 84 79.3 53.3zM90.7 48.9l-11.4 2.5-5.9-33.1L90.7 48.9zM35 24.3l-5-10.8h38.2L35 24.3z" fill="#223fc0" data-fill-palette-color="accent"></path></svg></g></svg></g></svg></g><defs></defs></svg><rect width="395.52" height="116.89947151383814" fill="none" stroke="none" visibility="hidden"></rect></g></svg></g></svg>